<?xml version="1.0" standalone="no"?>
<!DOCTYPE svg PUBLIC "-//W3C//DTD SVG 20010904//EN"
 "http://www.w3.org/TR/2001/REC-SVG-20010904/DTD/svg10.dtd">
<svg version="1.0" xmlns="http://www.w3.org/2000/svg"
 width="200.000000pt" height="200.000000pt" viewBox="0 0 200.000000 200.000000"
 preserveAspectRatio="xMidYMid meet">

<g transform="translate(0.000000,200.000000) scale(0.100000,-0.100000)"
fill="#000000" stroke="none">
<path d="M1045 1149 c-57 -18 -52 -18 46 -3 l37 6 22 -98 c12 -55 23 -103 24
-108 0 -4 -50 -22 -112 -39 -62 -16 -110 -33 -105 -37 14 -13 124 -42 139 -36
7 3 16 21 19 40 6 29 12 35 42 41 35 6 35 7 31 48 -3 23 -15 79 -28 125 -25
92 -22 91 -115 61z m58 -269 c-8 -29 -18 -32 -65 -19 l-43 12 45 13 c64 17 69
17 63 -6z"/>
<path d="M885 1150 c-3 -6 1 -7 9 -4 18 7 21 14 7 14 -6 0 -13 -4 -16 -10z"/>
<path d="M941 1120 c-1 -14 -12 -67 -25 -118 -51 -197 -96 -180 -61 23 3 17
-2 8 -10 -20 -17 -59 -20 -141 -4 -151 6 -3 22 4 35 17 26 26 78 214 71 253
-4 18 -5 17 -6 -4z"/>
<path d="M815 1074 c-3 -20 -4 -38 -1 -41 2 -3 8 11 11 30 4 21 14 38 24 40
11 3 10 5 -5 6 -17 1 -23 -6 -29 -35z"/>
<path d="M1001 1058 c-8 -13 -21 -33 -29 -46 -13 -20 -13 -22 1 -16 11 4 17
-3 22 -24 l6 -30 47 12 c45 12 47 14 47 50 0 31 -5 40 -33 56 -42 25 -44 25
-61 -2z m49 -8 c23 -12 36 -60 18 -71 -7 -5 -23 -9 -35 -9 -27 0 -40 38 -23
69 12 24 15 25 40 11z"/>
</g>
</svg>
