<?xml version="1.0" standalone="no"?>
<!DOCTYPE svg PUBLIC "-//W3C//DTD SVG 20010904//EN"
 "http://www.w3.org/TR/2001/REC-SVG-20010904/DTD/svg10.dtd">
<svg version="1.0" xmlns="http://www.w3.org/2000/svg"
 width="200.000000pt" height="200.000000pt" viewBox="0 0 200.000000 200.000000"
 preserveAspectRatio="xMidYMid meet">

<g transform="translate(0.000000,200.000000) scale(0.100000,-0.100000)"
fill="#000000" stroke="none">
<path d="M1305 1649 c-261 -72 -378 -108 -389 -119 -7 -7 -6 -14 1 -21 12 -12
54 -5 377 67 110 25 203 41 207 37 6 -7 63 -236 181 -726 16 -71 28 -131 25
-134 -3 -2 -142 -41 -309 -84 -167 -44 -401 -107 -520 -141 -183 -51 -218 -64
-218 -80 0 -22 18 -23 104 -3 60 14 67 14 109 -4 55 -24 243 -80 384 -116 92
-23 106 -24 135 -12 18 8 38 25 45 38 11 21 29 104 48 220 l5 37 128 31 c134
34 166 52 177 101 4 18 -31 174 -105 466 -117 463 -121 474 -180 487 -15 3
-100 -15 -205 -44z m122 -1071 c-2 -7 -16 -52 -31 -100 -15 -49 -30 -88 -35
-88 -4 0 -70 15 -147 34 -76 19 -166 40 -199 47 -33 7 -53 14 -45 16 168 41
429 101 444 102 11 1 16 -4 13 -11z"/>
<path d="M582 1649 c-48 -24 -89 -84 -95 -139 -3 -19 -8 -45 -12 -57 l-7 -21
-61 22 c-73 27 -104 22 -128 -19 -25 -43 -71 -258 -67 -313 7 -105 52 -31 105
171 l28 107 40 0 c71 0 71 -1 26 -166 -115 -428 -125 -474 -125 -584 -1 -82 4
-121 21 -176 25 -79 35 -91 82 -100 30 -6 37 -2 100 62 91 93 139 191 180 365
81 338 151 665 151 702 0 58 -39 120 -93 146 -55 27 -91 26 -145 0z m136 -64
c17 -14 33 -39 37 -55 5 -21 -24 -151 -95 -437 -82 -327 -109 -422 -138 -476
-37 -71 -115 -167 -127 -156 -16 17 -35 122 -35 200 0 64 10 131 39 260 49
217 112 534 110 545 -5 20 35 96 63 119 41 35 105 35 146 0z"/>
<path d="M983 1208 c-96 -147 -133 -212 -133 -231 0 -29 28 -25 61 9 l33 34
22 -115 c13 -63 26 -119 29 -125 10 -17 53 -11 229 33 108 27 173 48 179 58 7
12 1 48 -25 133 -34 112 -34 116 -14 109 36 -12 70 -9 73 7 4 17 -22 35 -196
137 -69 40 -137 73 -151 73 -23 0 -38 -17 -107 -122z m217 -21 l84 -42 18
-109 c10 -60 17 -110 16 -112 -5 -4 -261 -64 -263 -62 -1 2 -17 51 -35 109
l-33 106 58 77 c32 42 60 76 64 75 3 0 44 -19 91 -42z"/>
</g>
</svg>
